<svg width="16" height="15" viewBox="0 0 16 15" fill="none" xmlns="http://www.w3.org/2000/svg">
<g id="fi:phone" clip-path="url(#clip0_1994_687)">
<path id="Vector" d="M14.6249 10.575V12.45C14.6256 12.6241 14.5899 12.7964 14.5202 12.9558C14.4505 13.1153 14.3482 13.2585 14.2199 13.3762C14.0917 13.4938 13.9403 13.5834 13.7754 13.6392C13.6105 13.695 13.4358 13.7157 13.2624 13.7C11.3392 13.491 9.49177 12.8338 7.86865 11.7812C6.35854 10.8217 5.07823 9.54136 4.11865 8.03125C3.06238 6.40075 2.40505 4.54437 2.1999 2.6125C2.18428 2.43967 2.20482 2.26547 2.26021 2.10101C2.3156 1.93655 2.40463 1.78543 2.52163 1.65726C2.63862 1.5291 2.78103 1.42669 2.93977 1.35658C3.09851 1.28646 3.27011 1.25016 3.44365 1.25H5.31865C5.62196 1.24701 5.91602 1.35442 6.146 1.55221C6.37598 1.74999 6.5262 2.02465 6.56865 2.325C6.64779 2.92504 6.79455 3.5142 7.00615 4.08125C7.09024 4.30495 7.10844 4.54807 7.05859 4.7818C7.00874 5.01553 6.89294 5.23007 6.7249 5.4L5.93115 6.19375C6.82087 7.75846 8.11643 9.05403 9.68115 9.94375L10.4749 9.15C10.6448 8.98196 10.8594 8.86615 11.0931 8.81631C11.3268 8.76646 11.5699 8.78466 11.7936 8.86875C12.3607 9.08034 12.9499 9.22711 13.5499 9.30625C13.8535 9.34908 14.1308 9.502 14.329 9.73593C14.5272 9.96986 14.6325 10.2685 14.6249 10.575Z" stroke="#E86B02" stroke-width="2" stroke-linecap="round" stroke-linejoin="round"/>
</g>
<defs>
<clipPath id="clip0_1994_687">
<rect width="15" height="15" fill="white" transform="translate(0.875)"/>
</clipPath>
</defs>
</svg>
