<svg width="17" height="17" viewBox="0 0 17 17" fill="none" xmlns="http://www.w3.org/2000/svg">
<g id="u:pen">
<path id="Vector" d="M15.1668 5.32672C15.1673 5.23898 15.1505 5.15201 15.1174 5.07078C15.0842 4.98956 15.0353 4.91568 14.9735 4.85339L12.1468 2.02672C12.0845 1.96493 12.0107 1.91605 11.9294 1.88287C11.8482 1.84969 11.7612 1.83288 11.6735 1.83339C11.5858 1.83288 11.4988 1.84969 11.4176 1.88287C11.3363 1.91605 11.2625 1.96493 11.2002 2.02672L9.31351 3.91338L2.02684 11.2001C1.96505 11.2623 1.91617 11.3362 1.88299 11.4174C1.84982 11.4987 1.833 11.5856 1.83351 11.6734V14.5001C1.83351 14.6769 1.90375 14.8464 2.02877 14.9715C2.15379 15.0965 2.32336 15.1667 2.50017 15.1667H5.32684C5.42013 15.1718 5.51344 15.1572 5.60072 15.1239C5.688 15.0906 5.76731 15.0393 5.83351 14.9734L13.0802 7.68672L14.9735 5.83338C15.0344 5.76877 15.0839 5.69441 15.1202 5.61338C15.1266 5.56025 15.1266 5.50652 15.1202 5.45338C15.1233 5.42235 15.1233 5.39108 15.1202 5.36005L15.1668 5.32672ZM5.05351 13.8334H3.16684V11.9467L9.78684 5.32672L11.6735 7.21339L5.05351 13.8334ZM12.6135 6.27338L10.7268 4.38672L11.6735 3.44672L13.5535 5.32672L12.6135 6.27338Z" fill="#546371"/>
</g>
</svg>
