<svg width="23" height="23" viewBox="0 0 23 23" fill="none" xmlns="http://www.w3.org/2000/svg">
<g id="u:angle-right-b">
<path id="Vector" d="M14.6468 11.0187L9.49513 5.87616C9.41051 5.79085 9.30984 5.72314 9.19893 5.67693C9.08802 5.63072 8.96905 5.60693 8.84889 5.60693C8.72874 5.60693 8.60977 5.63072 8.49886 5.67693C8.38794 5.72314 8.28728 5.79085 8.20266 5.87616C8.03314 6.0467 7.93799 6.27739 7.93799 6.51784C7.93799 6.7583 8.03314 6.98899 8.20266 7.15953L12.7081 11.7105L8.20266 16.2159C8.03314 16.3864 7.93799 16.6171 7.93799 16.8575C7.93799 17.098 8.03314 17.3287 8.20266 17.4992C8.28696 17.5852 8.38748 17.6536 8.49841 17.7005C8.60934 17.7474 8.72847 17.7718 8.84889 17.7723C8.96932 17.7718 9.08845 17.7474 9.19937 17.7005C9.3103 17.6536 9.41083 17.5852 9.49513 17.4992L14.6468 12.3567C14.7392 12.2714 14.8129 12.168 14.8633 12.0529C14.9138 11.9377 14.9398 11.8134 14.9398 11.6877C14.9398 11.562 14.9138 11.4377 14.8633 11.3225C14.8129 11.2074 14.7392 11.1039 14.6468 11.0187Z" fill="#546371"/>
</g>
</svg>
