<svg width="20" height="21" viewBox="0 0 20 21" fill="none" xmlns="http://www.w3.org/2000/svg">
<g id="u:heart">
<path id="Vector" d="M16.8001 4.70725C15.9167 3.82159 14.7457 3.28103 13.4987 3.18323C12.2516 3.08542 11.0107 3.43681 10.0001 4.17392C8.93978 3.38528 7.62006 3.02768 6.30667 3.17311C4.99327 3.31855 3.78377 3.95623 2.92171 4.95774C2.05966 5.95924 1.60909 7.25018 1.66073 8.5706C1.71238 9.89101 2.26242 11.1428 3.20007 12.0739L8.37507 17.2573C8.80842 17.6837 9.39206 17.9228 10.0001 17.9228C10.6081 17.9228 11.1917 17.6837 11.6251 17.2573L16.8001 12.0739C17.7731 11.095 18.3192 9.77081 18.3192 8.39058C18.3192 7.01036 17.7731 5.6862 16.8001 4.70725ZM15.6251 10.9239L10.4501 16.0989C10.3912 16.1584 10.3211 16.2056 10.2439 16.2378C10.1666 16.27 10.0838 16.2866 10.0001 16.2866C9.91638 16.2866 9.83352 16.27 9.75628 16.2378C9.67904 16.2056 9.60896 16.1584 9.55007 16.0989L4.37507 10.8989C3.72153 10.2309 3.35558 9.33347 3.35558 8.39892C3.35558 7.46436 3.72153 6.56696 4.37507 5.89892C5.04103 5.24141 5.93921 4.87272 6.87507 4.87272C7.81092 4.87272 8.7091 5.24141 9.37507 5.89892C9.45254 5.97702 9.5447 6.03902 9.64625 6.08133C9.7478 6.12363 9.85672 6.14542 9.96673 6.14542C10.0767 6.14542 10.1857 6.12363 10.2872 6.08133C10.3888 6.03902 10.4809 5.97702 10.5584 5.89892C11.2244 5.24141 12.1225 4.87272 13.0584 4.87272C13.9943 4.87272 14.8924 5.24141 15.5584 5.89892C16.2209 6.55821 16.5989 7.45074 16.6114 8.38532C16.6238 9.3199 16.2698 10.2222 15.6251 10.8989V10.9239Z" fill="#97989F"/>
</g>
</svg>
