<svg width="16" height="17" viewBox="0 0 16 17" fill="none" xmlns="http://www.w3.org/2000/svg">
<g id="u:pen">
<path id="Vector" d="M14.6668 5.32672C14.6673 5.23898 14.6505 5.15201 14.6174 5.07078C14.5842 4.98956 14.5353 4.91568 14.4735 4.85339L11.6468 2.02672C11.5845 1.96493 11.5107 1.91605 11.4294 1.88287C11.3482 1.84969 11.2612 1.83288 11.1735 1.83339C11.0858 1.83288 10.9988 1.84969 10.9176 1.88287C10.8363 1.91605 10.7625 1.96493 10.7002 2.02672L8.81351 3.91338L1.52684 11.2001C1.46505 11.2623 1.41617 11.3362 1.38299 11.4174C1.34982 11.4987 1.333 11.5856 1.33351 11.6734V14.5001C1.33351 14.6769 1.40375 14.8464 1.52877 14.9715C1.65379 15.0965 1.82336 15.1667 2.00017 15.1667H4.82684C4.92013 15.1718 5.01344 15.1572 5.10072 15.1239C5.188 15.0906 5.26731 15.0393 5.33351 14.9734L12.5802 7.68672L14.4735 5.83338C14.5344 5.76877 14.5839 5.69441 14.6202 5.61338C14.6266 5.56025 14.6266 5.50652 14.6202 5.45338C14.6233 5.42235 14.6233 5.39108 14.6202 5.36005L14.6668 5.32672ZM4.55351 13.8334H2.66684V11.9467L9.28684 5.32672L11.1735 7.21339L4.55351 13.8334ZM12.1135 6.27338L10.2268 4.38672L11.1735 3.44672L13.0535 5.32672L12.1135 6.27338Z" fill="white"/>
</g>
</svg>
