<svg width="17" height="17" viewBox="0 0 17 17" fill="none" xmlns="http://www.w3.org/2000/svg">
<g id="u:user">
<path id="Vector" d="M10.9733 8.97338C11.6269 8.45915 12.104 7.75399 12.3382 6.956C12.5723 6.15802 12.5519 5.30689 12.2799 4.52102C12.0078 3.73516 11.4975 3.05364 10.82 2.57128C10.1426 2.08892 9.33163 1.82971 8.5 1.82971C7.66836 1.82971 6.85741 2.08892 6.17995 2.57128C5.5025 3.05364 4.99223 3.73516 4.72014 4.52102C4.44805 5.30689 4.42767 6.15802 4.66184 6.956C4.896 7.75399 5.37307 8.45915 6.02666 8.97338C4.90672 9.42207 3.92952 10.1663 3.19926 11.1267C2.469 12.087 2.01304 13.2276 1.88 14.4267C1.87037 14.5143 1.87808 14.6028 1.90268 14.6874C1.92729 14.772 1.96831 14.8509 2.02341 14.9196C2.13468 15.0584 2.29652 15.1473 2.47333 15.1667C2.65014 15.1862 2.82744 15.1346 2.96621 15.0233C3.10499 14.912 3.19388 14.7502 3.21333 14.5734C3.35972 13.2702 3.98112 12.0666 4.95881 11.1926C5.9365 10.3186 7.20193 9.83539 8.51333 9.83539C9.82473 9.83539 11.0902 10.3186 12.0679 11.1926C13.0455 12.0666 13.6669 13.2702 13.8133 14.5734C13.8315 14.7372 13.9096 14.8885 14.0327 14.9981C14.1559 15.1076 14.3152 15.1677 14.48 15.1667H14.5533C14.7281 15.1466 14.8878 15.0582 14.9977 14.9209C15.1076 14.7835 15.1587 14.6083 15.14 14.4334C15.0063 13.2308 14.5479 12.0874 13.8139 11.1255C13.0799 10.1637 12.0979 9.41969 10.9733 8.97338ZM8.5 8.50004C7.97258 8.50004 7.45701 8.34364 7.01848 8.05063C6.57995 7.75761 6.23815 7.34113 6.03632 6.85387C5.83449 6.3666 5.78168 5.83042 5.88457 5.31313C5.98746 4.79585 6.24144 4.3207 6.61438 3.94776C6.98732 3.57482 7.46247 3.32084 7.97976 3.21795C8.49704 3.11505 9.03322 3.16786 9.52049 3.3697C10.0078 3.57153 10.4242 3.91332 10.7173 4.35186C11.0103 4.79039 11.1667 5.30596 11.1667 5.83338C11.1667 6.54062 10.8857 7.2189 10.3856 7.71899C9.88552 8.21909 9.20724 8.50004 8.5 8.50004Z" fill="#E86B02"/>
</g>
</svg>
